Coordinates
version=1
nRows=5
nColumns=40
inDegrees=yes

Units are S.I. units (second, meters, Newtons, ...)
If the header above contains a line with 'inDegrees', this indicates whether rotational values are in degrees (yes) or radians (no).

endheader
time	pelvis_tilt	pelvis_list	pelvis_rotation	pelvis_tx	pelvis_ty	pelvis_tz	hip_flexion_r	hip_adduction_r	hip_rotation_r	knee_angle_r	knee_angle_r_beta	ankle_angle_r	subtalar_angle_r	mtp_angle_r	hip_flexion_l	hip_adduction_l	hip_rotation_l	knee_angle_l	knee_angle_l_beta	ankle_angle_l	subtalar_angle_l	mtp_angle_l	lumbar_extension	lumbar_bending	lumbar_rotation	arm_flex_r	arm_add_r	arm_rot_r	elbow_flex_r	pro_sup_r	wrist_flex_r	wrist_dev_r	arm_flex_l	arm_add_l	arm_rot_l	elbow_flex_l	pro_sup_l	wrist_flex_l	wrist_dev_l
     10.00000000000000000000	     13.55254158550414800288	      3.56874907492389192853	   -179.15297040133447126209	      0.35653041797251217027	      0.89014576369409414980	     -0.90782341604339988894	     42.26672393258132842675	    -28.66109677820026391259	    -20.54004774764992902192	     29.29625858253033499068	      0.51131617078080127126	     -8.06475765446862880026	      0.00000000000000000000	      0.00000000000000000000	     46.84174463571973490161	    -29.86184044925788327873	     -7.84825360092263935030	     33.47798274490319414554	      0.58430102582440968106	     -2.63183328338671174151	      0.00000000000000000000	      0.00000000000000000000	    -45.98006505521083653321	      7.46116759862598666331	      4.00890285035635596245	     42.22421052169532629250	    -12.51834542756799173446	     13.93489081754736247376	     20.98801523644446120898	     83.59378394241679188781	      0.00000000000000000000	      0.00000000000000000000	     42.03788432170388489340	     -2.76096365567716617306	     17.57895405167088398457	     20.30471971218897664357	     83.74197375512754604188	      0.00000000000000000000	      0.00000000000000000000
     10.00500000000000078160	     13.53989302130043093086	      3.58215760319488207841	   -179.07165173869023533371	      0.35624433748891065621	      0.89069119997996881732	     -0.90770533690700527796	     42.11343703317206177417	    -28.67596401022146679338	    -20.70852027334033707007	     29.18785698894308211493	      0.50942420605829497049	     -8.12540462119293671606	      0.00000000000000000000	      0.00000000000000000000	     46.78079606089361419663	    -29.76149694466837658524	     -7.73431280256047060107	     33.36953833089963694647	      0.58240831374465173997	     -2.68781530119288003533	      0.00000000000000000000	      0.00000000000000000000	    -45.67242817908841345798	      7.52952646997914865068	      3.91964012769555880666	     42.00519185033109437200	    -12.50947508951377962205	     13.91404255043774007561	     20.93164825397440509391	     83.59456953248177057958	      0.00000000000000000000	      0.00000000000000000000	     41.82248394247431377835	     -2.78979768394848992585	     17.60090837989104883832	     20.22577574038210812546	     83.74470108623798125791	      0.00000000000000000000	      0.00000000000000000000
     10.00999999999999978684	     13.55708481875782034365	      3.72110812809184743344	   -179.13810107229338086654	      0.35601010684353878721	      0.89154676023810353058	     -0.90812194251090605501	     41.92944248672478124718	    -28.36777591147176380559	    -20.65111130292551777643	     28.87908480790565945995	      0.50403511486062790858	     -8.28919792120881204767	      0.00000000000000000000	      0.00000000000000000000	     46.59937946999561120265	    -29.86665557442979235248	     -7.70352967517489695126	     32.99449479354830572220	      0.57586256917954470325	     -2.84787178813987695847	      0.00000000000000000000	      0.00000000000000000000	    -45.37430289789587334326	      7.60245669378499044910	      4.07517580183336036725	     41.74178234748998050918	    -12.50074021132608415030	     13.79114045748612404907	     20.94068414229196406495	     83.58626723535458324932	      0.00000000000000000000	      0.00000000000000000000	     41.61545635227803074940	     -2.79791492434284183588	     17.64513062268026288848	     20.31599824219916783363	     83.75518550370634329738	      0.00000000000000000000	      0.00000000000000000000
     10.01500000000000056843	     13.53113906039891745081	      3.72674928614456835163	   -179.06984626472410582210	      0.35568901880365899615	      0.89213548795637365174	     -0.90809832950839619592	     41.76547378906683150035	    -28.37967431818888641715	    -20.83361439590080266271	     28.76672362514379699405	      0.50207404226999829966	     -8.31393871387147953556	      0.00000000000000000000	      0.00000000000000000000	     46.51016011020745111182	    -29.78079903273254558371	     -7.60094694215431410100	     32.88023356289595966473	      0.57386833449728058554	     -2.90644146726480157028	      0.00000000000000000000	      0.00000000000000000000	    -45.08555882241822843071	      7.66494409941669374575	      3.99954770472705511963	     41.51353042970212214868	    -12.50734959790129252610	     13.75851022738820894631	     20.89795520319178478985	     83.58867641947101390087	      0.00000000000000000000	      0.00000000000000000000	     41.39718923815411244505	     -2.80770727368900274712	     17.66163952373877066293	     20.25219241300822048402	     83.75916687668734539329	      0.00000000000000000000	      0.00000000000000000000
     10.01999999999999957367	     13.53450858961516978241	      3.77492995540139508748	   -179.03418357011662465084	      0.35532061203792214554	      0.89277463244197352576	     -0.90826695271560609068	     41.61303498658408273059	    -28.30552425127926596815	    -20.95421999613814278973	     28.61360148444054019023	      0.49940155675702446736	     -8.37934451524258960831	      0.00000000000000000000	      0.00000000000000000000	     46.38964242822793693222	    -29.75078898310113473258	     -7.54675396997238490115	     32.64880616721098505195	      0.56982916446326203896	     -2.98806056171776690533	      0.00000000000000000000	      0.00000000000000000000	    -44.75938601177478659565	      7.74792986569760522286	      3.97334526497055229299	     41.23126027795867543091	    -12.49169919286888053023	     13.72310418916357477315	     20.86092878285025520313	     83.59414456158182815670	      0.00000000000000000000	      0.00000000000000000000	     41.11227293256256132281	     -2.83799823556219354970	     17.67687177428061673368	     20.16276373529570520304	     83.76326333593205220041	      0.00000000000000000000	      0.00000000000000000000
